<svg xmlns="http://www.w3.org/2000/svg" xml:space="preserve" width="496.31467" height="202.00533" viewBox="0 0 496.31467 202.00533"><defs><clipPath id="a" clipPathUnits="userSpaceOnUse"><path d="M0 151.504h372.236V0H0Z"/></clipPath></defs><path d="m0 0-10.216 7.403 22.506 31.02 22.039-31.02L24.111 0 12.29 16.953Z" style="fill:#1d70b6;fill-opacity:1;fill-rule:nonzero;stroke:none" transform="matrix(1.33333 0 0 -1.33333 233.003 90.385)"/><g clip-path="url(#a)" transform="matrix(1.33333 0 0 -1.33333 0 202.005)"><path d="M0 0c-1.134-1.132-2.515-1.699-4.147-1.699-1.632 0-3.039.567-4.216 1.699-1.179 1.134-1.767 2.517-1.767 4.147 0 1.632.588 3.013 1.767 4.149 1.177 1.132 2.584 1.699 4.216 1.699 1.632 0 3.013-.567 4.147-1.699C1.134 7.16 1.699 5.779 1.699 4.147 1.699 2.517 1.134 1.134 0 0m8.363 16.318C4.917 19.625.747 21.28-4.147 21.28c-4.895 0-9.066-1.655-12.51-4.962-3.446-3.31-5.168-7.366-5.168-12.171 0-4.711 1.722-8.745 5.168-12.102 3.444-3.352 7.615-5.031 12.51-5.031 4.894 0 9.064 1.679 12.51 5.031 3.444 3.357 5.168 7.391 5.168 12.102 0 4.805-1.724 8.861-5.168 12.171" style="fill:#1d70b6;fill-opacity:1;fill-rule:nonzero;stroke:none" transform="translate(217.785 56.497)"/><path d="M0 0v12.387h11.182v12.508H24.63v-38.643H11.182V0z" style="fill:#1d70b6;fill-opacity:1;fill-rule:nonzero;stroke:none" transform="translate(206.687 97.072)"/><path d="M0 0v32.938h37.62V20.699H13.297V12.24H37.62V0H25.684v-9.518h21.513v-12.389H-8.972v12.389h21.36V0Z" style="fill:#1d70b6;fill-opacity:1;fill-rule:nonzero;stroke:none" transform="translate(255.979 105.23)"/><path d="M0 0c-1.136-1.134-2.514-1.699-4.147-1.699-1.634 0-3.042.565-4.216 1.699-1.181 1.134-1.769 2.514-1.769 4.147 0 1.632.588 3.013 1.769 4.149 1.174 1.132 2.582 1.699 4.216 1.699 1.633 0 3.011-.567 4.147-1.699C1.132 7.16 1.7 5.779 1.7 4.147 1.7 2.514 1.132 1.134 0 0m8.363 16.318C4.915 19.625.748 21.28-4.147 21.28c-4.897 0-9.068-1.655-12.51-4.962-3.448-3.311-5.168-7.366-5.168-12.171 0-4.713 1.72-8.749 5.168-12.102 3.442-3.352 7.613-5.031 12.51-5.031 4.895 0 9.062 1.679 12.51 5.031 3.442 3.353 5.166 7.389 5.166 12.102 0 4.805-1.724 8.86-5.166 12.171" style="fill:#1d70b6;fill-opacity:1;fill-rule:nonzero;stroke:none" transform="translate(279.164 56.497)"/><path d="M0 0v26.256h-38.227V13.715h24.931V0h-33.598v-12.387h21.511v-25.536h13.296v25.536H9.272V0Z" style="fill:#1d70b6;fill-opacity:1;fill-rule:nonzero;stroke:none" transform="translate(362.964 95.712)"/><path d="m0 0-8.647 35.195-26.311.819 4.627-20.797 18.916-9.491z" style="fill:#b61544;fill-opacity:1;fill-rule:nonzero;stroke:none" transform="translate(58.233 102.661)"/><path d="m0 0 10.98-10.044.739 27.153-30.067 26.958 8.647-35.193Z" style="fill:#554595;fill-opacity:1;fill-rule:nonzero;stroke:none" transform="translate(67.935 93.787)"/><path d="m0 0-23.337 35.452-21.461-13.649 30.069-26.957Z" style="fill:#1d70b6;fill-opacity:1;fill-rule:nonzero;stroke:none" transform="translate(94.383 116.052)"/><path d="m0 0 40.37 30.444-34.691 1.413-43.362 25.392 23.336-35.452Z" style="fill:#009642;fill-opacity:1;fill-rule:nonzero;stroke:none" transform="translate(108.73 94.255)"/><path d="m0 0-23.337 35.452Z" style="fill:#009546;fill-opacity:1;fill-rule:nonzero;stroke:none" transform="translate(94.383 116.052)"/><path d="m0 0 33.289 3.232 7.081 27.212Z" style="fill:#75b62d;fill-opacity:1;fill-rule:nonzero;stroke:none" transform="translate(108.73 94.255)"/><path d="m0 0-.74-27.155 29.815 10.514L14.729 5.154Z" style="fill:#16b8dd;fill-opacity:1;fill-rule:nonzero;stroke:none" transform="translate(79.655 110.897)"/><path d="m0 0 14.346-21.797Z" style="fill:#2ebadc;fill-opacity:1;fill-rule:nonzero;stroke:none" transform="translate(94.383 116.052)"/><path d="m0 0 40.997-9.703 10.557 40.572-33.289-3.232Z" style="fill:#acc811;fill-opacity:1;fill-rule:nonzero;stroke:none" transform="translate(90.465 66.618)"/><path d="m0 0 20.659-7.916 18.266 27.639L9.109 9.209Z" style="fill:#e6df07;fill-opacity:1;fill-rule:nonzero;stroke:none" transform="translate(69.806 74.533)"/><path d="m0 0 29.471-6.674 5.724 22.001-40.999 9.703Z" style="fill:#e5d800;fill-opacity:1;fill-rule:nonzero;stroke:none" transform="translate(96.269 41.587)"/><path d="m0 0-21.478-21.711 47.94-11.233-5.803 25.028z" style="fill:#fbe706;fill-opacity:1;fill-rule:nonzero;stroke:none" transform="translate(69.806 74.533)"/><path d="m0 0-8.839-20.13L18.916-9.491Z" style="fill:#e2023a;fill-opacity:1;fill-rule:nonzero;stroke:none" transform="translate(27.903 117.877)"/><path d="m0 0-18.916 9.491Z" style="fill:#e2183c;fill-opacity:1;fill-rule:nonzero;stroke:none" transform="translate(46.819 108.387)"/><path d="m0 0-13.485-5.168L.453-21.216 21.116-14.6l-9.701 8.874Z" style="fill:#af81b7;fill-opacity:1;fill-rule:nonzero;stroke:none" transform="translate(46.819 108.387)"/><path d="m0 0 11.415-5.726Z" style="fill:#b187bb;fill-opacity:1;fill-rule:nonzero;stroke:none" transform="translate(46.819 108.387)"/><path d="m0 0 9.701-8.874Z" style="fill:#b187bb;fill-opacity:1;fill-rule:nonzero;stroke:none" transform="translate(58.233 102.661)"/><path d="m0 0-10.98 10.044-20.663-6.616 5.265-9.922-4.209-24.427L-9.109-9.209z" style="fill:#2b9ab4;fill-opacity:1;fill-rule:nonzero;stroke:none" transform="translate(78.915 83.742)"/><path d="m0 0 10.98-10.044Z" style="fill:#259bb1;fill-opacity:1;fill-rule:nonzero;stroke:none" transform="translate(67.935 93.787)"/><path d="m0 0 9.109 9.209ZM0 0l-21.478-21.711Z" style="fill:#259bb1;fill-opacity:1;fill-rule:nonzero;stroke:none" transform="translate(69.806 74.533)"/><path d="m0 0-5.265 9.922L-19.2 25.97l-14.273-5.471 18.867-27.185Z" style="fill:#e54f13;fill-opacity:1;fill-rule:nonzero;stroke:none" transform="translate(52.536 77.249)"/><path d="m0 0-18.865 27.186-9.781-22.277 7.091-14.78z" style="fill:#ed7e03;fill-opacity:1;fill-rule:nonzero;stroke:none" transform="translate(37.93 70.562)"/><path d="m0 0-21.555-9.871L10.4-17.742l4.206 24.428ZM0 0l14.606 6.686Z" style="fill:#f6af01;fill-opacity:1;fill-rule:nonzero;stroke:none" transform="translate(37.93 70.562)"/><path d="m0 0 21.556 9.871Z" style="fill:#f6af01;fill-opacity:1;fill-rule:nonzero;stroke:none" transform="translate(16.375 60.692)"/><path d="m0 0-9.282-21.137 23.806-20.201L39.046-22.65 7.093-14.78Z" style="fill:#ffdc04;fill-opacity:1;fill-rule:nonzero;stroke:none" transform="translate(9.282 75.471)"/><path d="m0 0 2.651-1.699L9.436 9.135l6.809-10.832 2.656 1.641-9.465 15.107Z" style="fill:#6f6f6e;fill-opacity:1;fill-rule:nonzero;stroke:none" transform="translate(200.803 12.264)"/><path d="M200.874 4.258h18.729v2.889h-18.729zM232.13 13.529h-5.65v9.796h5.65zm-9.044-2.89h12.439v15.574h-12.439z" style="fill:#6f6f6e;fill-opacity:1;fill-rule:nonzero;stroke:none"/><path d="M0 0h-3.396v-23.525H0v14.036h4.227V-6.6H0Z" style="fill:#6f6f6e;fill-opacity:1;fill-rule:nonzero;stroke:none" transform="translate(241.362 26.213)"/><path d="M246.63 4.232h17.72v2.887h-17.72z" style="fill:#6f6f6e;fill-opacity:1;fill-rule:nonzero;stroke:none"/><path d="M0 0h-12.303v3.094H0v2.889h-12.303v2.829H0V11.7h-15.698V-2.889H0z" style="fill:#6f6f6e;fill-opacity:1;fill-rule:nonzero;stroke:none" transform="translate(263.34 14.566)"/><path d="M279.931 14.566h-3.906v8.812h3.906zm-.217-2.89h6.618v2.89h-3.005v8.812h3.005v2.888h-16.707v-2.888h3.005v-8.812h-3.005v-2.89h6.668V7.119h-7.68V4.232h18.73v2.887h-7.629z" style="fill:#6f6f6e;fill-opacity:1;fill-rule:nonzero;stroke:none"/><path d="M0 0h6.113v2.916H-6.19v8.041H6.113v2.888H-9.585V0h6.164v-5.302h-6.923v-2.887H6.871v2.887H0Z" style="fill:#6f6f6e;fill-opacity:1;fill-rule:nonzero;stroke:none" transform="translate(321.598 12.42)"/><path d="M347.496 2.715h3.395V26.24h-3.395z" style="fill:#6f6f6e;fill-opacity:1;fill-rule:nonzero;stroke:none"/><path d="m0 0-.089-.171 2.795-1.456L7.928 8.504l5.22-10.101 2.824 1.395-8.044 15.615z" style="fill:#6f6f6e;fill-opacity:1;fill-rule:nonzero;stroke:none" transform="translate(330.451 11.906)"/><path d="M0 0a2.915 2.915 0 0 0-2.912-2.913A2.915 2.915 0 0 0-5.825 0a2.915 2.915 0 0 0 2.913 2.912A2.915 2.915 0 0 0 0 0m-2.912 12.765a3.127 3.127 0 0 0-3.123 3.123 3.126 3.126 0 0 0 3.123 3.122c1.722 0 3.122-1.4 3.122-3.122s-1.4-3.123-3.122-3.123M-4.4 7.321v2.475A6.243 6.243 0 0 1-2.912 9.6c.488 0 .959.068 1.416.175V7.321Zm6.298 3.231H.374c1.794 1.109 3.002 3.077 3.002 5.336a6.295 6.295 0 0 1-6.288 6.288 6.296 6.296 0 0 1-6.289-6.288c0-2.259 1.209-4.227 3.002-5.336h-1.595V7.321h-4.771V4.429h5.795C-8.012 3.346-8.814 1.772-8.814 0a5.909 5.909 0 0 1 5.902-5.902A5.908 5.908 0 0 1 2.989 0c0 1.772-.802 3.346-2.044 4.429h5.736v2.892H1.898Z" style="fill:#6f6f6e;fill-opacity:1;fill-rule:nonzero;stroke:none" transform="translate(302.691 5.902)"/></g></svg>